<?xml version="1.0" encoding="UTF-8"?>
<svg id="_レイヤー_2" data-name="レイヤー 2" xmlns="http://www.w3.org/2000/svg" viewBox="0 0 26.11 24.88">
  <defs>
    <style>
      .cls-1 {
        fill: #fff;
      }
    </style>
  </defs>
  <g id="_レイヤー_1-2" data-name="レイヤー 1">
    <path class="cls-1" d="M26.11,10.59C26.11,4.75,20.25,0,13.05,0S0,4.75,0,10.59c0,5.24,4.64,9.62,10.92,10.45.43.09,1,.28,1.15.64.13.33.09.85.04,1.18,0,0-.15.92-.19,1.12-.06.33-.26,1.29,1.13.7,1.39-.59,7.52-4.43,10.26-7.58h0c1.89-2.07,2.8-4.18,2.8-6.52ZM8.45,13.72c0,.14-.11.25-.25.25h-3.67c-.14,0-.25-.11-.25-.25h0v-5.7c0-.14.11-.25.25-.25h.93c.14,0,.25.11.25.25v4.52h2.49c.14,0,.25.11.25.25v.93ZM10.66,13.72c0,.14-.11.25-.25.25h-.93c-.14,0-.25-.11-.25-.25v-5.7c0-.14.11-.25.25-.25h.93c.14,0,.25.11.25.25v5.7ZM16.96,13.72c0,.14-.11.25-.25.25h-.92s-.04,0-.07,0c0,0,0,0,0,0,0,0-.01,0-.02,0,0,0,0,0,0,0,0,0,0,0-.01,0,0,0,0,0-.01,0,0,0,0,0,0,0,0,0-.01,0-.02,0,0,0,0,0,0,0-.02-.02-.05-.04-.06-.06l-2.61-3.52v3.38c0,.14-.11.25-.25.25h-.93c-.14,0-.25-.11-.25-.25v-5.7c0-.14.11-.25.25-.25h.93s0,0,.01,0c0,0,0,0,.01,0,0,0,0,0,.01,0,0,0,0,0,.01,0,0,0,0,0,0,0,0,0,.01,0,.02,0,0,0,0,0,0,0,0,0,0,0,.01,0,0,0,0,0,0,0,0,0,0,0,.01,0,0,0,0,0,0,0,0,0,0,0,.01,0,0,0,0,0,0,0,0,0,0,0,.01.01,0,0,0,0,0,0,0,0,.01.01.01.02,0,0,0,0,0,0,0,0,.01.02.02.03l2.61,3.52v-3.38c0-.14.11-.25.25-.25h.93c.14,0,.25.11.25.25v5.7ZM22.01,8.95c0,.14-.11.25-.25.25h-2.49v.96h2.49c.14,0,.25.11.25.25v.93c0,.14-.11.25-.25.25h-2.49v.96h2.49c.14,0,.25.11.25.25v.93c0,.14-.11.25-.25.25h-3.67c-.14,0-.25-.11-.25-.25h0v-5.69h0c0-.14.11-.25.25-.25h3.67c.14,0,.25.11.25.25v.93Z"/>
  </g>
</svg>