<?xml version="1.0" encoding="UTF-8"?>
<svg id="_レイヤー_2" data-name="レイヤー 2" xmlns="http://www.w3.org/2000/svg" viewBox="0 0 171.21 171.21">
  <defs>
    <style>
      .cls-1 {
        fill: none;
      }

      .cls-2 {
        fill: #fff;
      }
    </style>
  </defs>
  <g id="_レイヤー_1-2" data-name="レイヤー 1">
    <g>
      <rect class="cls-1" width="171.21" height="171.21"/>
      <g>
        <path class="cls-2" d="M53.13,82.37v1.02h-5.92v14.8h-1.23v-14.8h-5.92v-1.02h13.07Z"/>
        <polygon class="cls-2" points="106.34 82.26 105.67 82.26 98.37 98.19 99.65 98.19 105.99 84.25 112.36 98.19 113.64 98.19 106.34 82.26"/>
        <polygon class="cls-2" points="63.47 82.26 62.8 82.26 55.5 98.19 56.78 98.19 63.12 84.25 69.49 98.19 70.77 98.19 63.47 82.26"/>
        <path class="cls-2" d="M91.84,82.37v15.82h-1l-12-13.83v13.83h-1.22v-15.82h1.03l11.97,13.83v-13.83h1.22Z"/>
        <path class="cls-2" d="M130.42,82.37l-7.56,7.9,8.28,7.92h-1.55l-8.27-7.9v7.9h-1.22v-15.82h1.22v7.87l7.57-7.87h1.52Z"/>
      </g>
    </g>
  </g>
</svg>