<?xml version="1.0" encoding="UTF-8"?>
<svg id="_レイヤー_2" data-name="レイヤー 2" xmlns="http://www.w3.org/2000/svg" viewBox="0 0 147 180">
  <defs>
    <style>
      .cls-1 {
        fill: none;
      }

      .cls-2 {
        fill: #605f5f;
        stroke: #bfb6aa;
        stroke-miterlimit: 10;
        stroke-width: .25px;
      }
    </style>
  </defs>
  <g id="_レイヤー_1-2" data-name="レイヤー 1">
    <g>
      <g>
        <path class="cls-2" d="M73.5,41.63c-4.75,0-9.15,3.11-10.64,7.45-1.52.36-2.65,1.74-2.65,3.35,0,1.71,1.21,3.11,2.84,3.39.83,1.98,2.31,3.59,4.19,4.69l4.96,5.45-3.41,4,1.14.97,8.24-9.66c2.64-1.03,4.71-2.95,5.77-5.45,1.63-.28,2.84-1.68,2.84-3.39,0-1.6-1.13-2.99-2.65-3.35-1.49-4.34-5.89-7.45-10.64-7.45ZM73.19,64.81l-2.76-3.03c.97.23,2,.36,3.07.36.72,0,1.43-.06,2.11-.17l-2.42,2.84ZM83.5,50.5c1,.08,1.78.93,1.78,1.93,0,1.06-.83,1.91-1.89,1.94-.31,0-.58.2-.69.49-1.27,3.5-4.89,5.77-9.21,5.77s-7.93-2.26-9.21-5.77c-.11-.29-.38-.49-.69-.49-1.06-.03-1.89-.88-1.89-1.94,0-1,.78-1.85,1.78-1.93.31-.02.57-.24.66-.54,1.15-3.96,5.08-6.83,9.34-6.83s8.19,2.87,9.34,6.83c.09.3.35.51.66.54Z"/>
        <path class="cls-2" d="M74.79,49.7l.42-1.44c-3.52-1.04-3.97-3.68-3.99-3.79l-1.49.21c.02.15.57,3.7,5.05,5.02Z"/>
        <path class="cls-2" d="M76.37,48.49l.82-1.26c-2.6-1.69-2.76-3.09-2.76-3.11v.02s-1.5.04-1.5.04c0,.21.15,2.16,3.44,4.3Z"/>
        <path class="cls-2" d="M75.1,55.67c-.95.69-2.24.69-3.19,0-.33-.24-.8-.17-1.05.17-.24.34-.17.8.17,1.05.74.54,1.61.81,2.48.81s1.74-.27,2.48-.81c.34-.24.41-.71.17-1.05-.24-.33-.71-.41-1.05-.17Z"/>
        <path class="cls-2" d="M82.04,38.73c-4.01-3.7-8.08-5.44-8.25-5.51-.19-.08-.4-.08-.58,0-.17.07-4.25,1.81-8.25,5.51-5.35,4.94-7.96,11.02-7.55,17.59.96,15.51,8.49,29.12,16.1,29.12s15.13-13.61,16.1-29.12c.41-6.57-2.2-12.66-7.55-17.59ZM88.1,56.23c-.99,15.86-8.52,27.71-14.6,27.71s-13.61-11.85-14.6-27.71c-.38-6.18,1.98-11.69,7.04-16.37,3.22-2.98,6.57-4.67,7.56-5.13.99.46,4.34,2.14,7.56,5.13,5.05,4.68,7.42,10.19,7.04,16.37Z"/>
        <path class="cls-2" d="M71.14,51.27c-.25-.33-.72-.4-1.05-.15-.43.33-1.04.33-1.47,0-.33-.25-.8-.18-1.05.15-.25.33-.18.8.15,1.05.48.36,1.06.54,1.64.54s1.16-.18,1.64-.54c.33-.25.4-.72.15-1.05Z"/>
        <path class="cls-2" d="M78.38,51.12c-.43.33-1.04.33-1.47,0-.33-.25-.8-.18-1.05.15-.25.33-.18.8.15,1.05.48.36,1.06.54,1.64.54s1.16-.18,1.64-.54c.33-.25.4-.72.15-1.05-.25-.33-.72-.4-1.05-.15Z"/>
      </g>
      <rect class="cls-1" width="147" height="180"/>
    </g>
  </g>
</svg>