<?xml version="1.0" encoding="UTF-8"?>
<svg id="_レイヤー_2" data-name="レイヤー 2" xmlns="http://www.w3.org/2000/svg" viewBox="0 0 147 180">
  <defs>
    <style>
      .cls-1, .cls-2 {
        fill: none;
      }

      .cls-2, .cls-3 {
        stroke: #605f5f;
        stroke-linecap: round;
        stroke-linejoin: round;
      }

      .cls-4 {
        fill: #605f5f;
      }

      .cls-3 {
        fill: #bfb6aa;
      }
    </style>
  </defs>
  <g id="_レイヤー_1-2" data-name="レイヤー 1">
    <g>
      <g>
        <g>
          <rect class="cls-2" x="80.95" y="49.2" width="8.54" height="9.23" rx="4.27" ry="4.27"/>
          <path class="cls-4" d="M76.95,52.12c-1.22.48-1.61.88-2.09,2.09-.48-1.22-.88-1.61-2.09-2.09,1.22-.48,1.61-.88,2.09-2.09.48,1.22.88,1.61,2.09,2.09Z"/>
          <path class="cls-4" d="M99.81,66.79c-.1-.62-.43-1.16-.94-1.53l-5.38-3.89c-1.55-1.12-3.38-1.71-5.29-1.71h-5.82c-2.31,0-5.78,2.61-6.98,3.57l-2.39-3.9c.5-.78.5-1.59.5-1.88,0-1.18-.9-2.25-2.09-2.47-1.31-.25-2.66.25-3.42,1.27-.81,1.08-.84,2.57-.07,4.08l4.33,8.56s.01.02.02.03c.76,1.24,1.7,1.59,2.37,1.66,1,.11,2.06-.32,2.92-1.2l1.05-1.1.46,8.01h.93l-.52-9.14c-.01-.19-.13-.35-.3-.41-.17-.06-.37-.02-.5.12l-1.79,1.88c-.65.67-1.43,1-2.14.92-.65-.07-1.22-.49-1.67-1.21l-4.32-8.55c-.61-1.2-.61-2.3-.02-3.09.55-.74,1.53-1.09,2.5-.91.75.14,1.33.82,1.33,1.55,0,.41-.05,1.02-.49,1.56-.13.15-.14.37-.04.54l2.83,4.62c.07.12.19.2.32.22.13.02.27-.02.38-.11.04-.04,4.37-3.7,6.79-3.7h5.82c1.72,0,3.36.53,4.75,1.54l5.38,3.89c.63.46.78,1.35.32,1.98-.02.02-4.64,6.23-4.64,6.23-.58.64-1.39.5-1.93.07-.54-.42-.86-1.16-.38-1.86,0,0,0-.01.01-.02l2.4-3.9c.13-.21.07-.49-.13-.63l-2.38-1.63c-.14-.09-.32-.11-.47-.04-.15.07-.25.22-.26.39l-.68,9.71h.93l.11-1.52c.08.09.17.17.27.24.86.68,2.24.9,3.21-.2,0,0,.02-.02.03-.03,0,0,4.64-6.22,4.67-6.26.37-.51.51-1.13.42-1.75ZM91.73,67.48l1.34.92-1.59,2.58.24-3.5Z"/>
        </g>
        <rect class="cls-2" x="65.99" y="40.42" width="34.35" height="36.16"/>
        <g>
          <path class="cls-3" d="M74.98,75.48h-3.53l-1.63-4.03h-7.66l-1.63,4.03h-11.85c-1.11,0-2.01.91-2.01,2.01v14.58c0,1.11.91,2.01,2.01,2.01h26.3c1.11,0,2.01-.91,2.01-2.01v-14.58c0-1.11-.91-2.01-2.01-2.01Z"/>
          <g>
            <circle class="cls-2" cx="65.99" cy="85.01" r="6.8"/>
            <circle class="cls-2" cx="65.99" cy="85.01" r="5.29"/>
            <path class="cls-2" d="M63.07,85.01c0-1.61,1.31-2.92,2.92-2.92"/>
          </g>
          <circle class="cls-2" cx="50.82" cy="80.72" r="1.77"/>
          <line class="cls-2" x1="54.98" y1="77.61" x2="54.98" y2="94.09"/>
          <line class="cls-2" x1="49.05" y1="73.94" x2="52.6" y2="73.94"/>
          <line class="cls-2" x1="64.29" y1="74.36" x2="67.69" y2="74.36"/>
        </g>
      </g>
      <rect class="cls-1" width="147" height="180"/>
    </g>
  </g>
</svg>