<?xml version="1.0" encoding="UTF-8"?>
<svg id="_レイヤー_2" data-name="レイヤー 2" xmlns="http://www.w3.org/2000/svg" viewBox="0 0 147 180">
  <defs>
    <style>
      .cls-1, .cls-2 {
        fill: none;
      }

      .cls-2 {
        stroke: #605f5f;
        stroke-miterlimit: 10;
      }
    </style>
  </defs>
  <g id="_レイヤー_1-2" data-name="レイヤー 1">
    <g>
      <g>
        <path class="cls-2" d="M60.69,78.43c1.05.26,2.14.26,3.19,0"/>
        <path class="cls-2" d="M83.06,78.43c1.05.26,2.14.26,3.19,0"/>
        <path class="cls-2" d="M75.48,43.22c-1.32,0-2.64,0-3.97,0-6.64-.14-13.01-.95-16.32-2.45-.5-.23-1.03.25-.9.82l1.27,5.7c.07.3.32.53.61.54,5.77.36,11.55.54,17.32.54,5.78,0,11.55-.18,17.32-.54.29-.02.54-.24.61-.54l1.27-5.7c.13-.57-.4-1.04-.9-.82-3.31,1.5-9.68,2.31-16.32,2.45Z"/>
        <g>
          <line class="cls-2" x1="79.4" y1="55.09" x2="67.6" y2="55.09"/>
          <line class="cls-2" x1="67.6" y1="60.99" x2="79.4" y2="60.99"/>
          <path class="cls-2" d="M89.95,60.99h2.05c.58,0,1.06-.5,1.06-1.11v-3.68c0-.61-.47-1.11-1.06-1.11h-2.05"/>
          <path class="cls-2" d="M57.05,55.09h-2.05c-.58,0-1.06.5-1.06,1.11v3.68c0,.61.47,1.11,1.06,1.11h2.05"/>
        </g>
        <path class="cls-2" d="M60.07,51.23v27.08c-1.16.34-2.04,1-2.39,2.1-.18.58.18,1.2.72,1.27,2.61.33,5.25.33,7.86,0,.53-.07.9-.69.72-1.27-.35-1.11-1.23-1.77-2.39-2.1v-26.9"/>
        <path class="cls-2" d="M82.42,51.41v26.9c-1.16.34-2.04,1-2.39,2.1-.18.58.18,1.2.72,1.27,2.61.33,5.25.33,7.86,0,.53-.07.9-.69.72-1.27-.35-1.11-1.23-1.77-2.39-2.1v-27.08"/>
      </g>
      <rect class="cls-1" width="147" height="180"/>
    </g>
  </g>
</svg>