<?xml version="1.0" encoding="UTF-8"?>
<svg id="_レイヤー_2" data-name="レイヤー 2" xmlns="http://www.w3.org/2000/svg" viewBox="0 0 147 180">
  <defs>
    <style>
      .cls-1, .cls-2 {
        fill: none;
      }

      .cls-3 {
        stroke: #bfb6aa;
        stroke-miterlimit: 10;
        stroke-width: .5px;
      }

      .cls-3, .cls-4 {
        fill: #605f5f;
      }

      .cls-5 {
        font-size: 12px;
        letter-spacing: .05em;
      }

      .cls-2 {
        stroke: #605f5f;
        stroke-linejoin: round;
      }

      .cls-6 {
        font-size: 10px;
        letter-spacing: .05em;
      }

      .cls-4 {
        font-family: Montserrat-Light, Montserrat;
        font-weight: 300;
      }
    </style>
  </defs>
  <g id="_レイヤー_1-2" data-name="レイヤー 1">
    <g>
      <g>
        <text class="cls-4" transform="translate(58.3 47.1)"><tspan class="cls-5" x="0" y="0">20</tspan><tspan class="cls-6" x="15.85" y="-.7">th</tspan></text>
        <g>
          <g>
            <g>
              <line class="cls-2" x1="56.59" y1="69.28" x2="51.13" y2="71.53"/>
              <line class="cls-2" x1="50.57" y1="69.28" x2="45.12" y2="71.53"/>
              <line class="cls-2" x1="44.56" y1="69.28" x2="39.11" y2="71.53"/>
              <line class="cls-2" x1="38.54" y1="69.28" x2="33.09" y2="71.53"/>
              <line class="cls-2" x1="32.53" y1="69.28" x2="27.08" y2="71.53"/>
              <line class="cls-2" x1="26.51" y1="69.28" x2="21.06" y2="71.53"/>
            </g>
            <g>
              <line class="cls-2" x1="125.94" y1="69.28" x2="120.49" y2="71.53"/>
              <line class="cls-2" x1="119.92" y1="69.28" x2="114.47" y2="71.53"/>
              <line class="cls-2" x1="113.91" y1="69.28" x2="108.46" y2="71.53"/>
              <line class="cls-2" x1="107.89" y1="69.28" x2="102.44" y2="71.53"/>
              <line class="cls-2" x1="101.88" y1="69.28" x2="96.43" y2="71.53"/>
              <line class="cls-2" x1="95.87" y1="69.28" x2="90.41" y2="71.53"/>
            </g>
          </g>
          <path class="cls-3" d="M82.04,66.73l-1.36,1.13c-1.94-1.77-4.5-2.81-7.19-2.81s-5.25,1.03-7.19,2.81l-1.35-1.13c2.28-2.16,5.33-3.43,8.54-3.43s6.27,1.27,8.54,3.43ZM77.67,76.92l.39-.64-1.32-1.11,16.31-13.64-1.02-1.21c-4.62-5.49-11.37-8.64-18.53-8.64s-13.92,3.15-18.53,8.64l-1.02,1.21,16.31,13.64-1.32,1.11.39.64c.06.1,1.46,2.34,4.17,2.34s4.11-2.24,4.17-2.34ZM72.99,75.17l-16.56-13.86c4.28-5.01,10.49-7.88,17.07-7.88s12.8,2.87,17.07,7.88l-16.56,13.86,1.68,1.41c-.44.42-1.18.93-2.19.93s-1.75-.51-2.19-.93l1.68-1.41Z"/>
        </g>
      </g>
      <rect class="cls-1" width="147" height="180"/>
    </g>
  </g>
</svg>