<?xml version="1.0" encoding="UTF-8"?>
<svg id="_レイヤー_2" data-name="レイヤー 2" xmlns="http://www.w3.org/2000/svg" viewBox="0 0 147 180">
  <defs>
    <style>
      .cls-1, .cls-2 {
        fill: none;
      }

      .cls-3 {
        font-size: 12px;
        letter-spacing: .05em;
      }

      .cls-2 {
        stroke: #605f5f;
        stroke-linejoin: round;
      }

      .cls-4 {
        font-size: 10px;
        letter-spacing: .05em;
      }

      .cls-5, .cls-6 {
        fill: #605f5f;
      }

      .cls-6 {
        font-family: Montserrat-Light, Montserrat;
        font-weight: 300;
      }
    </style>
  </defs>
  <g id="_レイヤー_1-2" data-name="レイヤー 1">
    <g>
      <g>
        <g>
          <path class="cls-5" d="M74.44,71.88c1.46.26,2.87.82,4.21,1.66l.19-1.04c-1.39-.82-2.86-1.36-4.36-1.62,0,.33-.01.66-.03,1Z"/>
          <path class="cls-5" d="M86.78,59.61c-1.14-.69-3.09-1.37-5.98-.79-.04.35-.09.7-.16,1.04,2.76-.65,4.57-.06,5.63.58,1.44.87,2.18,2.27,2.27,3.26.17,1.93-.88,3.03-1.8,3.62-1.34.85-3.16,1.17-5.01.87-.28.27-.54.55-.78.84,2.27.51,4.66.18,6.33-.89,1.02-.65,1.71-1.51,2.05-2.55.2-.62.27-1.28.21-1.99-.1-1.15-.88-2.89-2.74-4.01Z"/>
          <path class="cls-5" d="M89.31,65.61c-.34,1.04-1.03,1.9-2.05,2.55-1.67,1.07-4.06,1.39-6.33.89.24-.29.5-.57.78-.84,1.86.3,3.68-.02,5.01-.87.92-.59,1.98-1.69,1.8-3.62-.09-.99-.82-2.39-2.27-3.26-1.05-.64-2.86-1.23-5.63-.58.07-.34.12-.69.16-1.04,2.89-.59,4.84.1,5.98.79,1.85,1.12,2.63,2.86,2.74,4.01.06.7,0,1.37-.21,1.99Z"/>
          <path class="cls-5" d="M74.15,61.56l-.76.73c.65,1.49,1.51,2.79,2.58,3.88.19-.27.4-.53.61-.79-1.02-1.07-1.83-2.35-2.42-3.82Z"/>
          <path class="cls-5" d="M73.39,62.29l.76-.73c.59,1.47,1.4,2.75,2.42,3.82-.21.26-.42.52-.61.79-1.06-1.08-1.93-2.39-2.58-3.88Z"/>
          <path class="cls-5" d="M71.98,69.11c-.31.1-.63.19-.96.28.2,1.47.1,2.98-.28,4.51l1.05-.14c.35-1.58.41-3.14.19-4.65Z"/>
          <path class="cls-5" d="M70.75,73.9c.39-1.53.48-3.05.28-4.51.32-.08.64-.18.96-.28.22,1.51.16,3.07-.19,4.65l-1.05.14Z"/>
          <path class="cls-5" d="M67.96,66.5l.46.95c1.61-.16,3.11-.58,4.48-1.26-.19-.27-.38-.54-.56-.82-1.33.64-2.8,1.02-4.38,1.13Z"/>
          <path class="cls-5" d="M68.42,67.45l-.46-.95c1.58-.11,3.05-.49,4.38-1.13.18.28.37.56.56.82-1.37.68-2.87,1.1-4.48,1.26Z"/>
          <path class="cls-5" d="M79.82,65.41c-1.21,1.07-2.18,2.3-2.88,3.65.31.1.63.21.94.34.7-1.3,1.67-2.47,2.88-3.49l-.93-.5Z"/>
          <path class="cls-5" d="M77.87,69.4c-.31-.12-.62-.24-.94-.34.71-1.35,1.67-2.58,2.88-3.65l.93.5c-1.21,1.01-2.18,2.18-2.88,3.49Z"/>
          <path class="cls-5" d="M84.37,71.58c1.47,2.43,1.47,4.33,1.19,5.53-.39,1.64-1.48,2.77-2.4,3.16-1.78.76-3.16.1-4-.6-1.23-1.01-2.09-2.64-2.38-4.5-.34-.18-.69-.34-1.04-.48.07.72.21,1.42.43,2.09.49,1.51,1.33,2.8,2.37,3.66,1.49,1.22,3.27,1.49,5.01.74,1.06-.45,2.47-1.73,2.97-3.84.3-1.29.35-3.36-1.1-5.93-.35.07-.69.13-1.04.17Z"/>
          <path class="cls-5" d="M86.51,77.33c-.5,2.11-1.91,3.39-2.97,3.84-1.74.75-3.52.48-5.01-.74-1.04-.85-1.88-2.15-2.37-3.66-.22-.67-.36-1.37-.43-2.09.35.14.7.3,1.04.48.29,1.86,1.15,3.5,2.38,4.5.84.69,2.22,1.36,4,.6.92-.39,2.01-1.52,2.4-3.16.28-1.2.29-3.1-1.19-5.53.34-.04.69-.1,1.04-.17,1.45,2.57,1.41,4.64,1.1,5.93Z"/>
          <path class="cls-5" d="M69.49,81.57h0c-1.67.14-3.09-.55-3.75-1.31-1.27-1.46-1.07-2.97-.67-3.99.58-1.48,1.86-2.8,3.55-3.65.07-.38.11-.76.14-1.14-.66.28-1.28.64-1.85,1.05-1.28.93-2.26,2.13-2.75,3.38-.7,1.8-.4,3.57.84,5,.76.87,2.4,1.82,4.57,1.64,1.32-.11,3.3-.7,5.3-2.88-.18-.31-.34-.62-.49-.93-1.85,2.15-3.67,2.73-4.9,2.84Z"/>
          <path class="cls-5" d="M69.57,82.55c-2.17.18-3.81-.77-4.57-1.64-1.25-1.43-1.55-3.2-.84-5,.49-1.25,1.46-2.45,2.75-3.38.57-.42,1.19-.77,1.85-1.05-.02.38-.07.76-.14,1.14-1.68.85-2.97,2.18-3.55,3.65-.4,1.02-.6,2.53.67,3.99.66.75,2.08,1.44,3.75,1.31h0c1.23-.1,3.04-.69,4.9-2.84.14.32.31.63.49.93-2,2.18-3.98,2.77-5.3,2.88Z"/>
          <path class="cls-5" d="M60.28,67.67c-.65-1.55-.43-3.11.08-3.97.99-1.66,2.5-1.93,3.59-1.87,1.58.09,3.24.91,4.57,2.24.38-.05.76-.13,1.12-.22-.47-.54-1-1.02-1.57-1.44-1.28-.93-2.73-1.49-4.07-1.57-.12,0-.23-.01-.34-.01-1.77,0-3.24.83-4.15,2.36-.59.99-.98,2.85-.15,4.85.51,1.22,1.69,2.92,4.38,4.15.24-.26.48-.51.74-.75-2.62-1.1-3.73-2.64-4.21-3.78Z"/>
          <path class="cls-5" d="M59.38,68.05c-.84-2-.44-3.86.15-4.85.91-1.53,2.37-2.36,4.15-2.36.11,0,.23,0,.34.01,1.34.08,2.78.63,4.07,1.57.57.42,1.1.9,1.57,1.44-.37.09-.74.17-1.12.22-1.33-1.33-2.99-2.15-4.57-2.24-1.09-.07-2.6.21-3.59,1.87-.51.86-.73,2.42-.08,3.97.48,1.14,1.59,2.68,4.21,3.78-.26.24-.5.49-.74.75-2.69-1.23-3.87-2.93-4.38-4.15Z"/>
          <path class="cls-5" d="M70.66,54.62c1.28-1.1,2.82-1.37,3.8-1.15,1.89.43,2.61,1.78,2.89,2.83.4,1.53.14,3.36-.72,5.04.17.35.36.68.56,1,.37-.62.66-1.27.88-1.94.49-1.51.57-3.05.23-4.35-.49-1.86-1.77-3.12-3.62-3.54-1.12-.26-3.02-.05-4.66,1.36-1.01.87-2.26,2.51-2.59,5.45.32.14.64.3.94.47.24-2.83,1.36-4.37,2.29-5.17Z"/>
          <path class="cls-5" d="M67.42,59.32c.34-2.94,1.59-4.58,2.59-5.45,1.64-1.41,3.54-1.62,4.66-1.36,1.85.42,3.13,1.68,3.62,3.54.34,1.3.26,2.85-.23,4.35-.22.67-.51,1.32-.88,1.94-.2-.32-.39-.65-.56-1,.86-1.68,1.12-3.51.72-5.04-.28-1.06-1-2.41-2.89-2.83-.98-.22-2.52.05-3.8,1.15-.93.8-2.06,2.34-2.29,5.17-.3-.17-.62-.33-.94-.47Z"/>
        </g>
        <g>
          <line class="cls-2" x1="56.59" y1="69.28" x2="51.13" y2="71.53"/>
          <line class="cls-2" x1="50.57" y1="69.28" x2="45.12" y2="71.53"/>
          <line class="cls-2" x1="44.56" y1="69.28" x2="39.11" y2="71.53"/>
          <line class="cls-2" x1="38.54" y1="69.28" x2="33.09" y2="71.53"/>
          <line class="cls-2" x1="32.53" y1="69.28" x2="27.08" y2="71.53"/>
          <line class="cls-2" x1="26.51" y1="69.28" x2="21.06" y2="71.53"/>
        </g>
        <g>
          <line class="cls-2" x1="125.94" y1="69.28" x2="120.49" y2="71.53"/>
          <line class="cls-2" x1="119.92" y1="69.28" x2="114.47" y2="71.53"/>
          <line class="cls-2" x1="113.91" y1="69.28" x2="108.46" y2="71.53"/>
          <line class="cls-2" x1="107.89" y1="69.28" x2="102.44" y2="71.53"/>
          <line class="cls-2" x1="101.88" y1="69.28" x2="96.43" y2="71.53"/>
          <line class="cls-2" x1="95.87" y1="69.28" x2="90.41" y2="71.53"/>
        </g>
        <text class="cls-6" transform="translate(59.69 47.1)"><tspan class="cls-3" x="0" y="0">20</tspan><tspan class="cls-4" x="15.85" y="-.7">th</tspan></text>
      </g>
      <rect class="cls-1" width="147" height="180"/>
    </g>
  </g>
</svg>