<?xml version="1.0" encoding="UTF-8"?>
<svg id="_レイヤー_2" data-name="レイヤー 2" xmlns="http://www.w3.org/2000/svg" viewBox="0 0 147 180">
  <defs>
    <style>
      .cls-1, .cls-2 {
        fill: none;
      }

      .cls-2 {
        stroke: #605f5f;
        stroke-linecap: round;
        stroke-linejoin: round;
      }
    </style>
  </defs>
  <g id="_レイヤー_1-2" data-name="レイヤー 1">
    <g>
      <g>
        <g>
          <rect class="cls-2" x="55.11" y="43.22" width="8.95" height="9.67" rx="4.34" ry="4.34" transform="translate(119.16 96.11) rotate(-180)"/>
          <line class="cls-2" x1="54.07" y1="63.39" x2="54.07" y2="89.42"/>
          <line class="cls-2" x1="59.54" y1="75.15" x2="59.54" y2="89.42"/>
          <path class="cls-2" d="M61.31,55.33h-3.54c-4.5,0-8.14,3.64-8.14,8.14v7.27c0,2.43,1.97,4.41,4.41,4.41h0"/>
        </g>
        <g>
          <rect class="cls-2" x="65.09" y="56.92" width="8.04" height="9.01" rx="3.9" ry="3.9"/>
          <path class="cls-2" d="M72.43,89.42v-9.42h0c.95,0,1.73-.77,1.73-1.73v-4.31c0-2.79-2.26-5.05-5.05-5.05h0c-2.79,0-5.05,2.26-5.05,5.05v4.31c0,.95.77,1.73,1.73,1.73h0v9.42"/>
        </g>
        <g>
          <rect class="cls-2" x="82.2" y="43.87" width="8.04" height="9.01" rx="3.9" ry="3.9"/>
          <path class="cls-2" d="M86.22,56.13h-1.8c-3.63,0-6.74,2.58-7.41,6.15l-.91,4.87,6.11,2.51"/>
          <polyline class="cls-2" points="80.37 68.91 78.9 78.38 92.58 78.38 91.84 73.64"/>
          <line class="cls-2" x1="82.2" y1="78.38" x2="82.2" y2="89.42"/>
          <line class="cls-2" x1="89.03" y1="78.38" x2="89.03" y2="89.42"/>
          <rect class="cls-2" x="91.16" y="54.22" width="6.11" height="6.69" rx="2.96" ry="2.96"/>
          <path class="cls-2" d="M89.23,70.43l1.73-5.03h-4.21c-1.21,0-2.19-.98-2.19-2.19h0c0-1.21.98-2.19,2.19-2.19h7.78c1.96,0,3.34,1.95,2.68,3.8l-2,5.62"/>
        </g>
      </g>
      <rect class="cls-1" width="147" height="180"/>
    </g>
  </g>
</svg>