<?xml version="1.0" encoding="UTF-8"?>
<svg id="_レイヤー_2" data-name="レイヤー 2" xmlns="http://www.w3.org/2000/svg" viewBox="0 0 147 180">
  <defs>
    <style>
      .cls-1 {
        fill: none;
      }

      .cls-2 {
        fill: #605f5f;
        stroke: #bfb6aa;
        stroke-miterlimit: 10;
        stroke-width: .5px;
      }
    </style>
  </defs>
  <g id="_レイヤー_1-2" data-name="レイヤー 1">
    <g>
      <g>
        <path class="cls-2" d="M93.72,69.08h-8.43c-.46,0-.84.37-.84.84v4.6c0,.46.37.84.84.84h8.43c.46,0,.84-.37.84-.84v-4.6c0-.46-.37-.84-.84-.84ZM86.13,70.75h2.54v2.92h-2.54v-2.92ZM92.89,73.67h-2.54v-2.92h2.54v2.92Z"/>
        <path class="cls-2" d="M98.74,77.14v-10.05h1.01c.33,0,.64-.2.77-.51.13-.31.07-.66-.16-.91l-9.43-9.96c-.16-.17-.38-.26-.61-.26h-1.88v-2.32c0-.46-.37-.84-.84-.84h-4.62c-.46,0-.84.37-.84.84v2.32h-9.08c-.25,0-.47.11-.63.29h0s-4.93,5.68-4.93,5.68l-.23-.24c-.16-.17-.38-.26-.61-.26h-12.91c-.25,0-.47.11-.63.29h0s-6.47,7.45-6.47,7.45l1.08.94v7.54h-2.55v1.67h56.61v-1.67h-3.07ZM83.82,53.97h2.95v6.31h-2.95v-6.31ZM66.31,62.6l.09.1-2.62,3.01,1.26,1.1.25-.29v1.86h-4.13l-5.47-5.78h10.6ZM49.42,77.14v-9.1l4.37-5.03,6.42,6.78c.16.17.38.26.61.26h4.49v7.1h-4.91v-6.1h-1.67v6.1h-2.11v-5.2c0-.46-.37-.84-.84-.84h-4.03c-.46,0-.84.37-.84.84v5.2h-1.49ZM54.94,77.14h-2.35v-4.36h2.35v4.36ZM74.92,77.14h-3.71v-6.39h3.71v6.39ZM81.65,77.14v-9.52h-1.67v9.52h-3.38v-7.23c0-.46-.37-.84-.84-.84h-5.38c-.46,0-.84.37-.84.84v7.23h-2.56v-12.56l6.12-7.04,8.79,9.29c.16.17.38.26.61.26h14.57v10.05h-15.42Z"/>
      </g>
      <rect class="cls-1" width="147" height="180"/>
    </g>
  </g>
</svg>