<?xml version="1.0" encoding="UTF-8"?>
<svg id="_レイヤー_2" data-name="レイヤー 2" xmlns="http://www.w3.org/2000/svg" viewBox="0 0 147 180">
  <defs>
    <style>
      .cls-1, .cls-2 {
        fill: none;
      }

      .cls-2 {
        stroke: #605f5f;
        stroke-linejoin: round;
      }

      .cls-3, .cls-4 {
        fill: #605f5f;
      }

      .cls-4 {
        font-family: Montserrat-Light, Montserrat;
        font-weight: 300;
        letter-spacing: .05em;
      }

      .cls-5 {
        font-size: 10px;
      }

      .cls-6 {
        font-size: 12px;
      }
    </style>
  </defs>
  <g id="_レイヤー_1-2" data-name="レイヤー 1">
    <g>
      <g>
        <text class="cls-4" transform="translate(61 45.08)"><tspan class="cls-6" x="0" y="0">10</tspan><tspan class="cls-5" x="13.33" y="-.7">th</tspan></text>
        <g>
          <g>
            <path class="cls-3" d="M74.44,71.05c1.45.26,2.86.82,4.19,1.66l.19-1.04c-1.39-.82-2.85-1.36-4.35-1.62,0,.33-.01.66-.03,1Z"/>
            <path class="cls-3" d="M86.74,58.79c-1.13-.69-3.08-1.37-5.96-.79-.04.35-.09.7-.16,1.04,2.75-.65,4.56-.06,5.61.58,1.44.87,2.17,2.27,2.26,3.26.17,1.93-.88,3.03-1.8,3.62-1.33.85-3.15,1.17-5,.87-.28.27-.54.55-.78.84,2.26.51,4.64.18,6.3-.89,1.02-.65,1.7-1.51,2.04-2.55.2-.62.27-1.28.2-1.99-.1-1.15-.88-2.89-2.73-4.01Z"/>
            <path class="cls-3" d="M89.26,64.78c-.34,1.04-1.02,1.9-2.04,2.55-1.66,1.07-4.04,1.39-6.3.89.24-.29.5-.57.78-.84,1.85.3,3.67-.02,5-.87.92-.59,1.97-1.69,1.8-3.62-.09-.99-.82-2.39-2.26-3.26-1.05-.64-2.85-1.23-5.61-.58.07-.34.12-.69.16-1.04,2.88-.59,4.83.1,5.96.79,1.85,1.12,2.62,2.86,2.73,4.01.06.7,0,1.37-.2,1.99Z"/>
            <path class="cls-3" d="M74.15,60.73l-.76.73c.65,1.49,1.51,2.79,2.57,3.88.19-.27.4-.53.61-.79-1.02-1.07-1.83-2.35-2.41-3.82Z"/>
            <path class="cls-3" d="M73.39,61.46l.76-.73c.59,1.47,1.4,2.75,2.41,3.82-.21.26-.42.52-.61.79-1.06-1.08-1.92-2.39-2.57-3.88Z"/>
            <path class="cls-3" d="M71.99,68.28c-.31.1-.63.19-.95.28.2,1.47.1,2.98-.28,4.51l1.05-.14c.35-1.58.41-3.14.19-4.65Z"/>
            <path class="cls-3" d="M70.76,73.07c.38-1.53.48-3.05.28-4.51.32-.08.64-.18.95-.28.22,1.51.16,3.07-.19,4.65l-1.05.14Z"/>
            <path class="cls-3" d="M67.98,65.67l.46.95c1.6-.16,3.1-.58,4.47-1.26-.19-.27-.38-.54-.56-.82-1.33.64-2.79,1.02-4.37,1.13Z"/>
            <path class="cls-3" d="M68.44,66.62l-.46-.95c1.57-.11,3.04-.49,4.37-1.13.18.28.36.56.56.82-1.36.68-2.86,1.1-4.47,1.26Z"/>
            <path class="cls-3" d="M79.8,64.59c-1.21,1.07-2.17,2.3-2.88,3.65.31.1.62.21.93.34.7-1.3,1.66-2.47,2.87-3.49l-.93-.5Z"/>
            <path class="cls-3" d="M77.85,68.58c-.31-.12-.62-.24-.93-.34.7-1.35,1.67-2.58,2.88-3.65l.93.5c-1.21,1.01-2.17,2.18-2.87,3.49Z"/>
            <path class="cls-3" d="M84.33,70.75c1.47,2.43,1.46,4.33,1.18,5.53-.39,1.64-1.48,2.77-2.39,3.16-1.77.76-3.15.1-3.99-.6-1.22-1.01-2.08-2.64-2.37-4.5-.34-.18-.69-.34-1.04-.48.07.72.21,1.42.43,2.09.49,1.51,1.33,2.8,2.36,3.66,1.49,1.22,3.26,1.49,4.99.74,1.06-.45,2.47-1.73,2.96-3.84.3-1.29.35-3.36-1.1-5.93-.35.07-.69.13-1.04.17Z"/>
            <path class="cls-3" d="M86.47,76.51c-.49,2.11-1.9,3.39-2.96,3.84-1.73.75-3.51.48-4.99-.74-1.04-.85-1.87-2.15-2.36-3.66-.22-.67-.36-1.37-.43-2.09.35.14.7.3,1.04.48.29,1.86,1.15,3.5,2.37,4.5.84.69,2.22,1.36,3.99.6.91-.39,2.01-1.52,2.39-3.16.28-1.2.28-3.1-1.18-5.53.34-.04.69-.1,1.04-.17,1.45,2.57,1.4,4.64,1.1,5.93Z"/>
            <path class="cls-3" d="M69.5,80.74h0c-1.67.14-3.08-.55-3.73-1.31-1.27-1.46-1.06-2.97-.67-3.99.58-1.48,1.86-2.8,3.53-3.65.07-.38.11-.76.14-1.14-.66.28-1.28.64-1.85,1.05-1.28.93-2.25,2.13-2.74,3.38-.7,1.8-.4,3.57.84,5,.76.87,2.39,1.82,4.55,1.64,1.32-.11,3.29-.7,5.28-2.88-.18-.31-.34-.62-.48-.93-1.85,2.15-3.66,2.73-4.88,2.84Z"/>
            <path class="cls-3" d="M69.58,81.72c-2.16.18-3.8-.77-4.55-1.64-1.24-1.43-1.54-3.2-.84-5,.49-1.25,1.46-2.45,2.74-3.38.57-.42,1.19-.77,1.85-1.05-.02.38-.07.76-.14,1.14-1.67.85-2.96,2.18-3.53,3.65-.4,1.02-.6,2.53.67,3.99.65.75,2.07,1.44,3.73,1.31h0c1.22-.1,3.03-.69,4.88-2.84.14.32.31.63.48.93-1.99,2.18-3.96,2.77-5.28,2.88Z"/>
            <path class="cls-3" d="M60.33,66.84c-.65-1.55-.43-3.11.08-3.97.99-1.66,2.49-1.93,3.58-1.87,1.58.09,3.23.91,4.56,2.24.38-.05.76-.13,1.12-.22-.47-.54-1-1.02-1.57-1.44-1.28-.93-2.72-1.49-4.05-1.57-.12,0-.23-.01-.34-.01-1.77,0-3.22.83-4.13,2.36-.59.99-.98,2.85-.15,4.85.51,1.22,1.68,2.92,4.36,4.15.24-.26.48-.51.74-.75-2.61-1.1-3.72-2.64-4.2-3.78Z"/>
            <path class="cls-3" d="M59.42,67.22c-.83-2-.44-3.86.15-4.85.91-1.53,2.37-2.36,4.13-2.36.11,0,.23,0,.34.01,1.34.08,2.78.63,4.05,1.57.57.42,1.1.9,1.57,1.44-.36.09-.74.17-1.12.22-1.33-1.33-2.98-2.15-4.56-2.24-1.09-.07-2.59.21-3.58,1.87-.51.86-.73,2.42-.08,3.97.47,1.14,1.59,2.68,4.2,3.78-.25.24-.5.49-.74.75-2.68-1.23-3.85-2.93-4.36-4.15Z"/>
            <path class="cls-3" d="M70.67,53.79c1.27-1.1,2.81-1.37,3.79-1.15,1.88.43,2.6,1.78,2.88,2.83.4,1.53.14,3.36-.72,5.04.17.35.36.68.56,1,.37-.62.66-1.27.88-1.94.49-1.51.57-3.05.23-4.35-.49-1.86-1.77-3.12-3.61-3.54-1.12-.26-3.01-.05-4.64,1.36-1,.87-2.25,2.51-2.58,5.45.32.14.64.3.94.47.24-2.83,1.36-4.37,2.29-5.17Z"/>
            <path class="cls-3" d="M67.45,58.49c.34-2.94,1.58-4.58,2.58-5.45,1.63-1.41,3.53-1.62,4.64-1.36,1.84.42,3.12,1.68,3.61,3.54.34,1.3.26,2.85-.23,4.35-.22.67-.51,1.32-.88,1.94-.2-.32-.39-.65-.56-1,.86-1.68,1.12-3.51.72-5.04-.27-1.06-1-2.41-2.88-2.83-.97-.22-2.52.05-3.79,1.15-.93.8-2.05,2.34-2.29,5.17-.3-.17-.62-.33-.94-.47Z"/>
          </g>
          <g>
            <line class="cls-2" x1="56.64" y1="68.45" x2="51.21" y2="70.71"/>
            <line class="cls-2" x1="50.65" y1="68.45" x2="45.22" y2="70.71"/>
            <line class="cls-2" x1="44.65" y1="68.45" x2="39.22" y2="70.71"/>
            <line class="cls-2" x1="38.66" y1="68.45" x2="33.23" y2="70.71"/>
            <line class="cls-2" x1="32.67" y1="68.45" x2="27.24" y2="70.71"/>
            <line class="cls-2" x1="26.67" y1="68.45" x2="21.24" y2="70.71"/>
          </g>
          <g>
            <line class="cls-2" x1="125.76" y1="68.45" x2="120.33" y2="70.71"/>
            <line class="cls-2" x1="119.76" y1="68.45" x2="114.33" y2="70.71"/>
            <line class="cls-2" x1="113.77" y1="68.45" x2="108.34" y2="70.71"/>
            <line class="cls-2" x1="107.78" y1="68.45" x2="102.35" y2="70.71"/>
            <line class="cls-2" x1="101.78" y1="68.45" x2="96.35" y2="70.71"/>
            <line class="cls-2" x1="95.79" y1="68.45" x2="90.36" y2="70.71"/>
          </g>
        </g>
      </g>
      <rect class="cls-1" width="147" height="180"/>
    </g>
  </g>
</svg>