<?xml version="1.0" encoding="UTF-8"?>
<svg id="_レイヤー_2" data-name="レイヤー 2" xmlns="http://www.w3.org/2000/svg" viewBox="0 0 147 180">
  <defs>
    <style>
      .cls-1 {
        fill: none;
      }

      .cls-2, .cls-3 {
        fill: #605f5f;
      }

      .cls-3 {
        stroke: #605f5f;
        stroke-miterlimit: 10;
        stroke-width: .15px;
      }
    </style>
  </defs>
  <g id="_レイヤー_1-2" data-name="レイヤー 1">
    <g>
      <g>
        <path class="cls-3" d="M84.85,48.06c.24-.02.43-.05.47-.05.18-.03.29-.2.26-.38-.03-.18-.2-.29-.38-.26-.23.04-.91.11-1.3-.05-.17-.07-.36.01-.42.18s.01.36.18.42c.14.06.3.09.45.12-.48,1.2-.26,2.87.58,4.04.39.54.5,1.22.31,1.9-.2.72-.72,1.34-1.35,1.62-.16.07-.24.26-.17.43.05.12.17.2.3.2.04,0,.09,0,.13-.03.82-.36,1.47-1.12,1.72-2.04.24-.88.1-1.75-.41-2.45-.77-1.07-.91-2.66-.38-3.64Z"/>
        <path class="cls-3" d="M105.31,35.36c0-5.01-3.9-9.09-8.7-9.09-3.93,0-7.25,2.73-8.33,6.47-.47-.34-.97-.63-1.52-.82-.66-.24-1.35-.36-2.07-.36-3.52,0-6.38,2.99-6.38,6.66,0,4.28,2.86,7.76,6.38,7.76,1.66,0,3.24-.77,4.43-2.17.12-.14.1-.34-.04-.46-.14-.12-.34-.1-.46.04-1.07,1.26-2.47,1.95-3.94,1.95-3.16,0-5.73-3.19-5.73-7.11,0-3.32,2.57-6.01,5.73-6.01.64,0,1.26.11,1.85.32.57.2,1.09.51,1.57.88-.13.63-.21,1.28-.21,1.95,0,5.1,2.97,9.37,6.91,10.38-.49.49-.83.89-.72,1.32.11.45.65.67,1.17.82.07.02.15.03.23.04-1.33,2.21-.18,3.95.87,5.09.55.6.59,1.34.52,1.85-.12.91-.67,1.81-1.35,2.23-.15.09-.2.29-.1.45.06.1.17.15.28.15.06,0,.12-.02.17-.05.84-.52,1.5-1.61,1.65-2.7.12-.92-.12-1.76-.68-2.38-1.52-1.66-1.71-3.03-.64-4.57.08,0,.17.01.25.01.52,0,.96-.05.99-.06.02,0,.05,0,.07-.02.34-.12.57-.32.67-.59.15-.4,0-.9-.29-1.51,4.19-.76,7.42-5.16,7.42-10.48ZM97.57,47.11s-.04.12-.25.2c-.21.02-1.24.12-1.88-.06-.67-.19-.72-.35-.72-.35-.04-.15.47-.64.81-.97l.05-.05c.33.05.67.08,1.02.08.2,0,.4-.02.6-.04.18.34.46.93.36,1.19ZM96.6,45.32c-4.44,0-8.05-4.47-8.05-9.96,0-4.65,3.61-8.44,8.05-8.44s8.05,3.79,8.05,8.44c0,5.49-3.61,9.96-8.05,9.96Z"/>
        <path class="cls-3" d="M100.66,30.36c-.13-.12-.34-.11-.46.02-.12.13-.11.34.02.46.89.82,1.51,1.89,1.79,3.1.03.15.17.25.32.25.02,0,.05,0,.07,0,.17-.04.28-.21.24-.39-.31-1.34-.99-2.52-1.98-3.43Z"/>
        <path class="cls-2" d="M48.89,47.79c-.49.14-.83.64-.83,1.23,0,.24.2.44.44.44s.44-.2.44-.44c0-.22.11-.36.18-.38.05-.01.12.06.16.14.13.21.4.27.61.14.21-.13.27-.4.14-.61-.33-.53-.81-.62-1.15-.52Z"/>
        <path class="cls-2" d="M80.41,74.19c-1.09,1.11-2.61,2.08-4.41,2.89l-1.85-10.58h1.69c.87,0,1.58-.71,1.58-1.58v-3.96c0-1.61.87-3.66,2.33-4.31.11-.05.2-.15.24-.26.04-.12.03-.25-.03-.36l-1.34-2.39c-.06-.1-.15-.17-.26-.21-1.04-.32-2.37-.07-3.57.67-.88.54-2.38,1.8-2.92,4.2h-11.99c.02-1.54-.17-4.67-1.72-8.11-1.92-4.26-5.24-7.47-9.85-9.54-.22-.1-.48,0-.58.22-.1.22,0,.48.22.58.01,0,.02,0,.03.01-.04,1.34-.56,3.86-1.74,4.72-1.58,1.15-5.68,6.77-4.24,9.29.94,1.64,3.33.69,5.26-.07.73-.29,2.08-.83,2.33-.66.3.27.7,1.48.57,3.57-.83.04-1.5.72-1.5,1.56v5.03c0,.87.71,1.58,1.58,1.58h1.69l-1.85,10.58c-1.8-.81-3.32-1.78-4.41-2.89-.17-.17-.45-.18-.62,0-.17.17-.18.45,0,.62,1.99,2.02,5.17,3.58,8.97,4.55.02,0,.02.02.04.03.03,0,.05,0,.08,0,0,0,0,0,0,0,2.72.68,5.74,1.07,8.92,1.07s6.2-.39,8.92-1.07c0,0,0,0,0,0,.03,0,.05,0,.08,0,.02,0,.02-.02.04-.02,3.81-.97,6.99-2.53,8.97-4.55.17-.17.17-.45,0-.62-.17-.17-.45-.17-.62,0ZM75.26,54.87c.9-.55,1.91-.78,2.68-.62l1.02,1.83c-.94.58-1.62,1.6-2.01,2.69-.29-.28-.68-.46-1.11-.46h-3.06c.51-1.96,1.74-3,2.48-3.45ZM50.17,54.1c-.61-.55-1.77-.09-3.24.5-1.97.79-3.65,1.36-4.17.46-.46-.81-.09-2.39,1.01-4.34.98-1.74,2.29-3.3,2.98-3.8.75-.54,1.33-1.53,1.72-2.93.2-.73.32-1.47.37-2.08,3.94,1.98,6.82,4.89,8.52,8.66,1.49,3.3,1.66,6.29,1.64,7.75h-7.97c.02-.35.03-.85,0-1.41-.07-1.43-.35-2.35-.87-2.81ZM49.53,64.93v-5.03c0-.38.31-.7.7-.7h25.62c.38,0,.7.31.7.7v5.03c0,.38-.31.7-.7.7h-25.62c-.38,0-.7-.31-.7-.7ZM52.81,66.51h3.03l-2.07,11.88c-1.01-.27-1.97-.59-2.86-.95l1.91-10.93ZM54.62,78.61l2.11-12.1h16.53l1.91,10.93c-.9.36-1.85.68-2.86.95l-1.65-9.43c-.04-.24-.27-.4-.51-.36-.24.04-.4.27-.36.51l1.66,9.5c-2.59.62-5.45.97-8.41.97s-5.83-.35-8.41-.97Z"/>
      </g>
      <rect class="cls-1" width="147" height="180"/>
    </g>
  </g>
</svg>