<?xml version="1.0" encoding="UTF-8"?>
<svg id="_レイヤー_2" data-name="レイヤー 2" xmlns="http://www.w3.org/2000/svg" viewBox="0 0 147 180">
  <defs>
    <style>
      .cls-1, .cls-2 {
        fill: none;
      }

      .cls-2 {
        stroke-linecap: round;
        stroke-linejoin: round;
      }

      .cls-2, .cls-3 {
        stroke: #605f5f;
      }

      .cls-3 {
        fill: #605f5f;
        stroke-miterlimit: 10;
        stroke-width: .25px;
      }
    </style>
  </defs>
  <g id="_レイヤー_1-2" data-name="レイヤー 1">
    <g>
      <g>
        <g>
          <g>
            <path class="cls-2" d="M52.59,74.71s-1.36-14.68,3.99-17.55"/>
            <path class="cls-2" d="M63.33,74.71s.89-12.82-2.25-17.25"/>
            <line class="cls-2" x1="58.86" y1="54.75" x2="58.86" y2="59.19"/>
          </g>
          <path class="cls-2" d="M60.89,49.84c-3.1-1.07-6.91.04-9.06,2.58-3.81,4.52-2.59,9.8-2.26,15.16.26,4.18-.12,8.66,1.49,12.6,1.46,3.57,5.76,5.74,9.47,4.57,4.98-1.57,5.54-8.22,5.4-12.61-.11-3.35.14-6.66.33-9.98.22-3.87-.05-8.31-3.14-11.03-.67-.59-1.43-1.02-2.24-1.3Z"/>
          <g>
            <path class="cls-2" d="M82.77,74.71s1.36-14.68-3.99-17.55"/>
            <path class="cls-2" d="M72.03,74.71s-.89-12.82,2.25-17.25"/>
            <line class="cls-2" x1="76.5" y1="54.75" x2="76.5" y2="59.19"/>
          </g>
          <path class="cls-2" d="M74.47,49.84c3.1-1.07,6.91.04,9.06,2.58,3.81,4.52,2.59,9.8,2.26,15.16-.26,4.18.12,8.66-1.49,12.6-1.46,3.57-5.76,5.74-9.47,4.57-4.98-1.57-5.54-8.22-5.4-12.61.11-3.35-.14-6.66-.33-9.98-.22-3.87.05-8.31,3.14-11.03.67-.59,1.43-1.02,2.24-1.3Z"/>
        </g>
        <g>
          <path class="cls-3" d="M100.77,55.98c.85.15,1.67.48,2.45.97l.11-.61c-.81-.48-1.67-.8-2.54-.95,0,.19,0,.39-.02.58Z"/>
          <path class="cls-3" d="M107.97,48.8c-.66-.4-1.8-.8-3.49-.46-.02.21-.05.41-.09.61,1.61-.38,2.67-.03,3.28.34.84.51,1.27,1.33,1.32,1.91.1,1.13-.52,1.77-1.05,2.12-.78.5-1.84.68-2.92.51-.16.16-.32.32-.46.49,1.32.3,2.71.11,3.69-.52.59-.38,1-.88,1.19-1.49.12-.36.16-.75.12-1.16-.06-.67-.51-1.69-1.59-2.35Z"/>
          <path class="cls-3" d="M109.44,52.31c-.2.61-.6,1.11-1.19,1.49-.97.63-2.36.82-3.69.52.14-.17.29-.33.46-.49,1.08.17,2.14-.01,2.92-.51.54-.34,1.15-.99,1.05-2.12-.05-.58-.48-1.4-1.32-1.91-.61-.37-1.67-.72-3.28-.34.04-.2.07-.4.09-.61,1.69-.34,2.82.06,3.49.46,1.08.66,1.53,1.67,1.59,2.35.04.41,0,.8-.12,1.16Z"/>
          <path class="cls-3" d="M100.6,49.94l-.45.43c.38.87.88,1.63,1.5,2.27.11-.16.23-.31.36-.46-.59-.62-1.07-1.37-1.41-2.23Z"/>
          <path class="cls-3" d="M100.16,50.37l.45-.43c.34.86.82,1.61,1.41,2.23-.12.15-.24.3-.36.46-.62-.63-1.12-1.4-1.5-2.27Z"/>
          <path class="cls-3" d="M99.34,54.35c-.18.06-.37.11-.56.16.12.86.06,1.74-.16,2.64l.61-.08c.2-.92.24-1.84.11-2.72Z"/>
          <path class="cls-3" d="M98.62,57.16c.22-.9.28-1.78.16-2.64.19-.05.37-.1.56-.16.13.88.09,1.8-.11,2.72l-.61.08Z"/>
          <path class="cls-3" d="M97,52.83l.27.56c.94-.09,1.82-.34,2.61-.74-.11-.16-.22-.32-.33-.48-.78.38-1.63.6-2.55.66Z"/>
          <path class="cls-3" d="M97.26,53.39l-.27-.56c.92-.06,1.78-.28,2.55-.66.1.17.21.33.33.48-.8.4-1.67.65-2.61.74Z"/>
          <path class="cls-3" d="M103.91,52.19c-.71.63-1.27,1.34-1.68,2.14.18.06.37.13.55.2.41-.76.97-1.45,1.68-2.04l-.54-.29Z"/>
          <path class="cls-3" d="M102.77,54.53c-.18-.07-.36-.14-.55-.2.41-.79.98-1.51,1.68-2.14l.54.29c-.71.59-1.27,1.28-1.68,2.04Z"/>
          <path class="cls-3" d="M106.56,55.8c.86,1.42.86,2.53.69,3.24-.23.96-.87,1.62-1.4,1.85-1.04.45-1.84.06-2.33-.35-.72-.59-1.22-1.54-1.39-2.63-.2-.11-.4-.2-.61-.28.04.42.12.83.25,1.22.29.88.78,1.64,1.38,2.14.87.71,1.91.87,2.92.43.62-.27,1.44-1.01,1.73-2.25.18-.76.2-1.96-.64-3.47-.2.04-.4.08-.61.1Z"/>
          <path class="cls-3" d="M107.81,59.17c-.29,1.23-1.11,1.98-1.73,2.25-1.01.44-2.05.28-2.92-.43-.61-.5-1.1-1.26-1.38-2.14-.13-.39-.21-.8-.25-1.22.21.08.41.18.61.28.17,1.09.67,2.04,1.39,2.63.49.4,1.3.79,2.33.35.53-.23,1.17-.89,1.4-1.85.16-.7.17-1.82-.69-3.24.2-.02.4-.06.61-.1.85,1.51.82,2.71.64,3.47Z"/>
          <path class="cls-3" d="M97.88,61.64h0c-.97.08-1.8-.32-2.18-.76-.74-.85-.62-1.74-.39-2.33.34-.86,1.09-1.64,2.07-2.14.04-.22.07-.45.08-.67-.38.17-.75.37-1.08.62-.75.54-1.32,1.25-1.6,1.98-.41,1.05-.23,2.09.49,2.92.44.51,1.4,1.06,2.66.96.77-.06,1.92-.41,3.09-1.69-.1-.18-.2-.36-.28-.55-1.08,1.26-2.14,1.6-2.85,1.66Z"/>
          <path class="cls-3" d="M97.93,62.22c-1.27.1-2.22-.45-2.66-.96-.73-.83-.9-1.87-.49-2.92.29-.73.85-1.43,1.6-1.98.33-.24.7-.45,1.08-.62-.01.22-.04.44-.08.67-.98.5-1.73,1.27-2.07,2.14-.23.59-.35,1.48.39,2.33.38.44,1.21.84,2.18.76h0c.72-.06,1.77-.4,2.85-1.66.08.18.18.37.28.55-1.17,1.27-2.32,1.62-3.09,1.69Z"/>
          <path class="cls-3" d="M92.52,53.51c-.38-.91-.25-1.82.05-2.32.58-.97,1.46-1.13,2.09-1.09.92.05,1.89.53,2.67,1.31.22-.03.44-.07.66-.13-.28-.32-.58-.6-.92-.84-.75-.54-1.59-.87-2.37-.92-.07,0-.13,0-.2,0-1.03,0-1.89.48-2.42,1.38-.34.58-.57,1.67-.09,2.84.3.72.99,1.71,2.55,2.43.14-.15.28-.3.43-.44-1.53-.64-2.18-1.55-2.46-2.21Z"/>
          <path class="cls-3" d="M91.99,53.73c-.49-1.17-.26-2.26.09-2.84.53-.89,1.38-1.38,2.42-1.38.07,0,.13,0,.2,0,.78.05,1.62.37,2.37.92.33.24.64.53.92.84-.21.05-.43.1-.66.13-.78-.78-1.74-1.26-2.67-1.31-.64-.04-1.51.12-2.09,1.09-.3.5-.43,1.41-.05,2.32.28.66.93,1.57,2.46,2.21-.15.14-.29.29-.43.44-1.57-.72-2.25-1.71-2.55-2.43Z"/>
          <path class="cls-3" d="M98.57,45.88c.74-.64,1.65-.8,2.22-.67,1.1.25,1.52,1.04,1.68,1.66.23.9.08,1.97-.42,2.95.1.2.21.4.33.59.21-.36.39-.74.51-1.13.29-.88.33-1.78.14-2.55-.28-1.09-1.03-1.83-2.11-2.07-.65-.15-1.76-.03-2.72.8-.59.51-1.32,1.47-1.51,3.19.19.08.37.18.55.28.14-1.66.79-2.56,1.34-3.03Z"/>
          <path class="cls-3" d="M96.68,48.63c.2-1.72.93-2.68,1.51-3.19.96-.83,2.06-.95,2.72-.8,1.08.25,1.83.98,2.11,2.07.2.76.15,1.66-.14,2.55-.13.39-.3.77-.51,1.13-.12-.19-.23-.38-.33-.59.5-.98.65-2.05.42-2.95-.16-.62-.58-1.41-1.68-1.66-.57-.13-1.47.03-2.22.67-.54.47-1.2,1.37-1.34,3.03-.18-.1-.36-.19-.55-.28Z"/>
        </g>
      </g>
      <rect class="cls-1" width="147" height="180"/>
    </g>
  </g>
</svg>