<?xml version="1.0" encoding="UTF-8"?>
<svg id="_レイヤー_2" data-name="レイヤー 2" xmlns="http://www.w3.org/2000/svg" viewBox="0 0 147 180">
  <defs>
    <style>
      .cls-1, .cls-2 {
        fill: none;
      }

      .cls-2 {
        stroke: #605f5f;
        stroke-linecap: round;
        stroke-linejoin: round;
      }

      .cls-3 {
        fill: #605f5f;
      }
    </style>
  </defs>
  <g id="_レイヤー_1-2" data-name="レイヤー 1">
    <g>
      <g>
        <circle class="cls-3" cx="56.85" cy="77.21" r="1.1"/>
        <circle class="cls-3" cx="66.26" cy="81.28" r="1.1"/>
        <path class="cls-2" d="M77.85,54.99c-4.46.68-8.07,4.85-8.07,9.31v22.33l16.15-2.47v-22.33c0-4.46-3.61-7.52-8.07-6.84Z"/>
        <path class="cls-2" d="M63.05,47.63c-.44,0-.88.02-1.34.09-4.46.68-8.07,4.85-8.07,9.31v21.82"/>
        <line class="cls-2" x1="69.78" y1="86.63" x2="53.63" y2="79.29"/>
        <line class="cls-2" x1="81.65" y1="55.35" x2="65.51" y2="48.02"/>
        <line class="cls-2" x1="69.78" y1="64.73" x2="85.93" y2="62.25"/>
        <line class="cls-2" x1="69.78" y1="68" x2="85.93" y2="65.52"/>
        <line class="cls-2" x1="75.13" y1="67.18" x2="75.13" y2="82.14"/>
        <line class="cls-2" x1="80.7" y1="66.32" x2="80.7" y2="81.29"/>
        <path class="cls-2" d="M85.93,82.14c8.07-6.42,8.41-17.15,6.43-23.98-2.15-7.44-10.4-6.1-11.93-3.36"/>
        <path class="cls-2" d="M90.79,64.21s-.27,7.35-4.86,12.1"/>
        <path class="cls-2" d="M86.14,50.54c-.83-.4-2.34-.9-4.49-.7-3.4.32-5.09,3.21-5.09,3.21"/>
        <path class="cls-2" d="M77.53,48.33c-3.11-1.27-6.78-.1-7.75,1.64"/>
        <path class="cls-2" d="M75.5,45.7c-.83-.4-2.34-.9-4.49-.7-3.4.32-5.09,3.21-5.09,3.21"/>
      </g>
      <rect class="cls-1" width="147" height="180"/>
    </g>
  </g>
</svg>