<?xml version="1.0" encoding="UTF-8"?>
<svg id="_レイヤー_2" data-name="レイヤー 2" xmlns="http://www.w3.org/2000/svg" viewBox="0 0 147 180">
  <defs>
    <style>
      .cls-1 {
        fill: none;
      }

      .cls-2 {
        fill: #605f5f;
        stroke: #bfb6aa;
        stroke-miterlimit: 10;
        stroke-width: .85px;
      }
    </style>
  </defs>
  <g id="_レイヤー_1-2" data-name="レイヤー 1">
    <g>
      <path class="cls-2" d="M97.49,71.34c0-1.53-.9-3.73-5.05-5.73v-8.04c.13-3.93-6.32-6.11-12.33-6.93-.55-.07-1.05.31-1.12.86-.07.55.31,1.05.86,1.12h0c6.93.98,10.67,3.07,10.6,4.91-.18,2.43-7.17,5.13-16.93,5.13-10.46,0-16.89-3.03-16.93-5.21-.01-2.12,5.4-4.56,13.54-5.12v5.79c0,.55.46.99,1.01.99.54,0,.98-.44.99-.99v-2.76l2.78.46v2.3c0,.55.46.99,1.01.99.54,0,.98-.44.99-.99v-11.37c-.08-1.2-1.02-2.16-2.22-2.25v-2.64c0-.55-.45-1-1-1s-1,.45-1,1v2.61c-1.33-.06-2.46.95-2.56,2.28v3.58c-7.66.5-15.54,2.87-15.54,7.11-.01.03.01,8.13,0,8.17-4.16,2-5.06,4.2-5.06,5.74,0,0,0,16.32,0,16.32-.39,7.38,19.93,10.26,30.22,8.85.55-.05.95-.54.89-1.09-.05-.55-.54-.95-1.09-.89,0,0,0,0,0,0-2.01.2-4.02.3-6.03.29-12.96,0-21.99-3.77-21.99-7.17v-.29c3.69,3.24,12.29,5.37,21.99,5.37s18.31-2.13,21.99-5.37v.3c0,2.53-4.83,5.08-12.01,6.34-.54.1-.9.63-.79,1.17.09.47.49.8.97.81,8.46-1.39,13.88-4.63,13.83-8.33v-16.32ZM72.12,46.75c.11-.46,1.75-.24,2.15-.29.41,0,.63.22.63.29v1.47l-2.78-.46v-1.02ZM72.12,49.79l2.78.46v3.54l-2.78-.46v-3.54ZM56.58,60.81c6.77,5.11,27.15,5.12,33.86.02v5.58c-.16.05-.32-.05-.37-.2h0s-.59-1.9-.59-1.9c-.35-1.08-1.51-1.68-2.59-1.34-.85.27-1.42,1.05-1.43,1.94l-.02,4.5-.32.02s-.05-.09-.09-.14l-1.87-2.49c-.91-1.16-2.58-1.37-3.75-.47-.5.39-.84.94-.97,1.55l-.48,2.4c-.07.33-.39.54-.72.47-.21-.04-.38-.2-.45-.4l-.86-2.78c-.35-1.12-1.54-1.74-2.66-1.39-.66.21-1.17.72-1.38,1.38l-.55,1.82c-.15.43-.63.66-1.06.5-.25-.09-.44-.29-.52-.54l-.57-2.19c-.37-1.34-1.75-2.13-3.09-1.76-.83.23-1.49.87-1.74,1.69l-.37,1.26c-.12.36-.51.56-.87.44-.26-.08-.44-.31-.47-.58l-.09-1.18c-.11-1.59-1.48-2.79-3.07-2.68-.98.07-1.86.63-2.33,1.49-.13.23-.34.4-.58.48v-5.52ZM56.58,68.38c.99-.11,1.86-.69,2.33-1.56.24-.43.78-.58,1.21-.34.25.14.42.4.45.7l.09,1.19c.11,1.48,1.4,2.58,2.87,2.47,1.11-.08,2.05-.85,2.37-1.91l.37-1.27c.09-.27.38-.42.64-.33.16.05.29.18.34.35l.57,2.19c.29,1.12,1.25,1.95,2.4,2.08,1.35.17,2.63-.66,3.01-1.96l.55-1.82c.02-.09.19-.15.23,0l.87,2.8c.43,1.37,1.88,2.14,3.26,1.71.91-.28,1.59-1.04,1.78-1.98l.48-2.4c.07-.36.41-.59.76-.52.16.03.3.12.4.25l1.82,2.43c.66,1.02,2.03,1.31,3.06.65.59-.38.96-1.03,1-1.73v-4.45l.12-.02.59,1.9c.31.99,1.24,1.66,2.28,1.63v.52c0,2.18-6.44,5.23-16.93,5.23-10.8-.16-17.25-2.8-16.93-5.78ZM94.69,85.35c-2.78,3.17-11.5,5.39-21.19,5.39-9.63-.11-20.71-2.13-21.97-7.04,1.11-.06,2.15-.59,2.83-1.47.5-.81,2.62-.72,2.8.29l.11,1.17c.27,2.96,5.23,3.3,6.2.61l.48-1.26c.19-.56,1.72-.58,1.91.01l.73,2.17c.53,1.3,1.83,2.12,3.23,2.05,1.35.06,2.6-.69,3.18-1.91l.73-1.83s.14-.13.46-.16c.17-.01.33.04.45.15l1.13,2.79c.91,2.42,5.32,2.28,5.93-.28l.62-2.39c.16-.66,1.71-.79,2.15-.23l2.38,2.43c1.14,1.63,4.68.95,4.65-1.2l-.02-4.38c.08-.07.17-.12.28-.12.18-.04.36,0,.51.11l.76,1.9c.44.95,1.39,1.56,2.43,1.56-.08.61-.35,1.17-.78,1.61ZM95.49,81.73c-.23,0-.45-.1-.6-.29l-.76-1.91c-.83-2.1-4.59-1.68-4.62.68v4.38c-.29.22-1,.28-1.17-.08l-2.42-2.48c-1.46-1.66-5.02-1.07-5.52,1.11l-.62,2.4c-.23.72-1.92.67-2.14.03l-1.13-2.79c-.68-1.85-3.94-1.86-4.62,0l-.73,1.82c-.33.84-2.34.88-2.66-.03l-.73-2.18c-.74-2.35-4.87-2.39-5.67-.08l-.48,1.27c-.25.39-.69.6-1.15.56-.53.03-1.2-.33-1.19-.65l-.12-1.19c-.28-2.9-4.87-3.5-6.4-1.26-.31.36-.75.59-1.22.63v-6.56c2.16,1.92,6.01,3.47,11.15,4.43.54.1,1.06-.26,1.17-.8s-.26-1.06-.8-1.17h0c-8.64-1.68-15.81-5.55-8.46-9.74-1.71,11.1,39.58,11.11,37.86,0,11.98,7.5-14.8,12.13-25.49,10.29-.55-.05-1.04.35-1.09.9-.05.54.34,1.02.87,1.09,9.11,1.16,23.8-.4,28.76-4.98v6.57Z"/>
      <rect class="cls-1" width="147" height="180"/>
    </g>
  </g>
</svg>