<?xml version="1.0" encoding="UTF-8"?>
<svg id="_レイヤー_2" data-name="レイヤー 2" xmlns="http://www.w3.org/2000/svg" viewBox="0 0 147 180">
  <defs>
    <style>
      .cls-1 {
        fill: none;
      }

      .cls-2 {
        fill: #605f5f;
        stroke: #bfb6aa;
        stroke-miterlimit: 10;
        stroke-width: .25px;
      }
    </style>
  </defs>
  <g id="_レイヤー_1-2" data-name="レイヤー 1">
    <g>
      <g>
        <path class="cls-2" d="M81.84,52.26c-3.13,0-6.01,1.04-8.33,2.79-1.78-1.34-3.87-2.23-6.06-2.6l3.95-4.73c.11-.13.18-.47.1-.67l-1.63-3.76c-.1-.23-.33-.39-.59-.39h-8.23c-.26,0-.49.15-.59.39l-1.63,3.76c-.09.2-.05.49.1.67l3.95,4.73c-6.56,1.09-11.57,6.8-11.57,13.66,0,7.64,6.22,13.86,13.86,13.86,3.13,0,6.01-1.04,8.33-2.79,2.39,1.81,5.33,2.79,8.34,2.79,7.64,0,13.86-6.22,13.86-13.86s-6.22-13.86-13.86-13.86ZM66.4,47.95l-1.24,4.04-1.24-4.04h2.48ZM64.15,46.67l1.01-1.81,1.01,1.81h-2.03ZM67.74,47.95h1.79l-2.83,3.39,1.04-3.39ZM66.26,44.19h1.95l-.95,1.78-1-1.78ZM63.07,45.98l-.95-1.78h1.95l-1,1.78ZM62.58,47.95l1.04,3.39-2.83-3.39h1.79ZM68.34,46.67l.88-1.65.71,1.65h-1.59ZM61.11,45.03l.88,1.65h-1.59l.71-1.65ZM52.59,66.11c0-6.49,4.94-11.85,11.26-12.51l.82.99c.12.15.3.23.49.23s.37-.08.49-.23l.82-.98c2.17.23,4.24,1.02,6.01,2.29-.35.32-.69.67-1.01,1.03-1.86-1.29-4.04-1.96-6.32-1.96-6.15,0-11.15,5-11.15,11.15s5,11.15,11.15,11.15c2.4,0,4.69-.75,6.62-2.18.81-.6,1.54-1.3,2.16-2.09,1.56-1.98,2.38-4.36,2.38-6.88,0-2.31-.69-4.5-2-6.38.31-.37.65-.71,1.01-1.03,1.56,2.14,2.42,4.74,2.42,7.41,0,6.93-5.64,12.57-12.57,12.57s-12.57-5.64-12.57-12.57ZM70.67,57.92c-1.69,2.3-2.69,5.13-2.69,8.19s.95,5.83,2.69,8.19c-1.63,1.1-3.52,1.68-5.51,1.68-5.44,0-9.87-4.43-9.87-9.87s4.43-9.87,9.87-9.87c1.99,0,3.88.58,5.51,1.68ZM73.5,60.83c1,1.58,1.53,3.38,1.53,5.28s-.53,3.71-1.53,5.28c-1.01-1.58-1.53-3.38-1.53-5.28s.57-3.75,1.54-5.28ZM76.33,57.92c1.57-1.06,3.47-1.68,5.5-1.68,5.44,0,9.87,4.43,9.87,9.87s-4.43,9.87-9.87,9.87c-1.99,0-3.88-.58-5.51-1.68,1.69-2.3,2.69-5.13,2.69-8.19s-.95-5.83-2.68-8.19ZM81.84,78.69c-2.63,0-5.2-.83-7.33-2.36.35-.32.69-.67,1.01-1.03,1.86,1.29,4.03,1.96,6.32,1.96,6.15,0,11.15-5,11.15-11.15s-5-11.15-11.15-11.15-11.15,5-11.15,11.15c0,2.31.69,4.5,2,6.38-.31.37-.65.71-1.01,1.03-1.56-2.14-2.42-4.74-2.42-7.41,0-6.93,5.64-12.57,12.57-12.57s12.57,5.64,12.57,12.57-5.64,12.57-12.57,12.57Z"/>
        <polygon class="cls-2" points="53.45 52.9 54.73 52.9 54.73 51.14 56.5 51.14 56.5 49.85 54.73 49.85 54.73 48.09 53.45 48.09 53.45 49.85 51.69 49.85 51.69 51.14 53.45 51.14 53.45 52.9"/>
        <polygon class="cls-2" points="76.75 48.09 78.04 48.09 78.04 45.52 80.6 45.52 80.6 44.24 78.04 44.24 78.04 41.67 76.75 41.67 76.75 44.24 74.19 44.24 74.19 45.52 76.75 45.52 76.75 48.09"/>
        <polygon class="cls-2" points="71.98 80.57 70.69 80.57 70.69 82.06 69.2 82.06 69.2 83.35 70.69 83.35 70.69 84.84 71.98 84.84 71.98 83.35 73.47 83.35 73.47 82.06 71.98 82.06 71.98 80.57"/>
      </g>
      <rect class="cls-1" width="147" height="180"/>
    </g>
  </g>
</svg>