<?xml version="1.0" encoding="UTF-8"?><svg id="_レイヤー_2" xmlns="http://www.w3.org/2000/svg" viewBox="0 0 269.1 95.33"><defs><style>.cls-1{fill:#cb4d4a;opacity:.8;}.cls-2{fill:#fff05a;}</style></defs><g id="_レイヤー_1-2"><path class="cls-1" d="M16.32,95.33h252.78V0H16.32C7.3,0,0,7.3,0,16.32v62.7c0,9.01,7.3,16.32,16.32,16.32Z"/><path class="cls-2" d="M21.36,27.32v7.35c0,.55.04,1.28.09,1.67h-2.02c.04-.33.11-1.03.11-1.69v-7.33c0-.4-.04-1.17-.09-1.58h2c-.04.42-.09,1.06-.09,1.58ZM31.59,27.47v3.56c0,5.28-.73,7.02-2.31,8.91-1.43,1.72-3.63,2.66-5.24,3.21l-1.43-1.52c2.02-.51,3.89-1.39,5.26-2.93,1.56-1.83,1.83-3.61,1.83-7.77v-3.48c0-.75-.04-1.36-.11-1.91h2.07c-.04.55-.07,1.17-.07,1.91Z"/><path class="cls-2" d="M40.92,38.93h13.18c.66,0,1.36-.04,2-.11v2.11c-.66-.07-1.41-.11-2-.11h-13.18c-.79,0-1.56.07-2.31.11v-2.11c.75.04,1.52.11,2.31.11ZM42.68,28.02h9.42c.79,0,1.56-.02,2.18-.09v1.98c-.62-.04-1.45-.07-2.18-.07h-9.42c-.77,0-1.5.04-2.18.07v-1.98c.7.04,1.45.09,2.18.09Z"/><path class="cls-2" d="M74.65,32.46c-.18,1.5-.81,5.85-1.12,7.88h2.16c.48,0,1.28-.02,1.74-.07v1.78c-.4-.02-1.21-.04-1.67-.04h-12.06c-.68,0-1.19.02-1.83.07v-1.83c.53.04,1.17.09,1.83.09h7.97c.33-1.85.97-6.14,1.03-7.39h-7c-.64,0-1.21.04-1.76.07v-1.85c.53.07,1.19.13,1.74.13h6.69c.35,0,.9-.07,1.1-.15l1.34.64c-.07.22-.13.51-.15.68Z"/><path class="cls-2" d="M85.89,32.84h12.06c1.1,0,1.89-.07,2.38-.11v2.16c-.44-.02-1.36-.11-2.35-.11h-12.08c-1.21,0-2.38.04-3.06.11v-2.16c.66.04,1.83.11,3.06.11Z"/><path class="cls-2" d="M122.47,28.17c-.88,1.5-2.97,4.33-5.48,6.07l-1.45-1.17c2.02-1.17,4.09-3.56,4.82-4.93h-12.54c-.81,0-1.65.04-2.51.13v-2c.77.11,1.69.2,2.51.2h12.63c.42,0,1.21-.07,1.54-.13l1.08,1.03c-.15.22-.44.55-.59.79ZM108.15,43.07l-1.63-1.32c.62-.2,1.36-.55,1.98-.99,3.41-2.09,3.89-5.21,3.89-8.89,0-.53-.02-1.01-.09-1.58h1.98c0,5.96-.53,9.99-6.14,12.78Z"/><path class="cls-2" d="M129.86,36.27c.64-2,.66-6.4.66-8.85,0-.66-.07-1.14-.15-1.61h2.02c-.02.26-.11.92-.11,1.58,0,2.44-.09,7.15-.68,9.35-.66,2.35-2.07,4.51-3.92,6.05l-1.65-1.12c1.85-1.32,3.17-3.28,3.83-5.41ZM136.27,40.56v-13.18c0-.84-.11-1.47-.13-1.63h2.02c-.02.15-.09.79-.09,1.63v12.7c2.02-.92,4.73-2.93,6.42-5.41l1.03,1.5c-1.89,2.57-4.95,4.84-7.5,6.09-.35.2-.59.37-.75.51l-1.17-.97c.09-.35.15-.79.15-1.23Z"/><path class="cls-2" d="M167.42,40.63v1.63h-19.63v-1.63h8.85v-12.63h-7.7v-1.67h17.38v1.67h-7.9v12.63h9Z"/><path class="cls-2" d="M189.51,37.7h-2.27v3.9h-1.63v-.99h-5.28v1.52c0,1.01-.31,1.39-.97,1.63-.68.24-1.83.26-3.65.26-.09-.42-.35-1.01-.57-1.39,1.32.04,2.64.02,3.01.02.42-.02.55-.15.55-.53v-1.52h-7.11v-1.25h7.11v-1.65h-9v-1.3h9v-1.54h-6.91v-1.21h6.91v-1.54h-6.29v-3.87h6.29v-1.28h-8.58v-1.34h8.58v-1.76h1.63v1.76h8.76v1.34h-8.76v1.28h6.56v3.87h-6.56v1.54h6.91v2.75h2.27v1.3ZM178.7,30.97v-1.58h-4.73v1.58h4.73ZM180.33,29.38v1.58h4.93v-1.58h-4.93ZM180.33,36.4h5.28v-1.54h-5.28v1.54ZM185.61,37.7h-5.28v1.65h5.28v-1.65Z"/><path class="cls-2" d="M196.02,27.18c-.42,2.02-1.1,5.96-1.1,8.43,0,1.08.07,2,.2,3.08.37-.99.9-2.31,1.28-3.21l.92.7c-.57,1.56-1.36,3.89-1.56,4.93-.07.33-.13.75-.11.99.02.24.04.55.07.77l-1.58.11c-.44-1.56-.81-4.09-.81-7.06,0-3.23.73-7,.99-8.82.09-.51.15-1.08.15-1.56l1.96.18c-.11.37-.31,1.08-.4,1.47ZM201.14,38.38c0,1.01.73,1.98,3.72,1.98,1.98,0,3.67-.18,5.46-.57l.04,1.85c-1.39.26-3.24.46-5.5.46-3.7,0-5.35-1.23-5.35-3.3,0-.75.13-1.52.37-2.6l1.58.15c-.22.81-.33,1.43-.33,2.02ZM209.66,27.38v1.78c-2.35.26-6.62.26-9.04,0v-1.76c2.4.4,6.84.31,9.04-.02Z"/><path class="cls-2" d="M220.24,24.37c-.62,1.54-1.39,3.1-2.24,4.53v14.96h-1.54v-12.61c-.79,1.1-1.61,2.07-2.44,2.9-.15-.35-.64-1.21-.92-1.58,2.22-2.09,4.36-5.35,5.63-8.67l1.52.46ZM233.68,37.75h-6.53v6.18h-1.65v-6.18h-6.29v-1.54h6.29v-3.83h-5.39v-1.54h5.39v-6.73h1.65v6.73h5.59v1.54h-5.59v3.83h6.53v1.54ZM222.31,30.2c-.29-1.21-1.1-3.19-1.91-4.69l1.36-.53c.86,1.45,1.72,3.39,2.05,4.6l-1.5.62ZM232.61,25.4c-.79,1.63-1.76,3.54-2.53,4.77l-1.32-.53c.75-1.28,1.72-3.37,2.2-4.84l1.65.59Z"/><path class="cls-2" d="M246.66,31.76c-2.55,0-4.71.73-6.01,1.1-.68.22-1.32.46-1.85.68l-.57-2.05c.62-.04,1.36-.18,2.02-.33,1.54-.35,4.05-1.06,6.58-1.06,3.12,0,5.46,1.74,5.46,4.88,0,4.77-4.29,7.46-9.99,8.32l-.99-1.67c5.35-.66,9.11-2.77,9.11-6.71,0-1.85-1.5-3.17-3.76-3.17ZM250.54,26.04l-.26,1.69c-2.44-.15-6.89-.59-9.37-1.03l.29-1.67c2.42.55,7.2.99,9.35,1.01Z"/><path class="cls-2" d="M28.42,62.59v10.39h-1.36v-2.18c-1.94.35-3.87.73-5.43.97l-.42-1.39c.53-.07,1.14-.15,1.83-.26v-7.53h-1.19l.13,1.06-2.25.75v6.69c0,.86-.18,1.3-.73,1.58-.51.22-1.34.29-2.71.26-.07-.37-.26-1.06-.48-1.47.95.02,1.8.02,2.07.02s.37-.09.37-.4v-6.21c-.92.31-1.78.59-2.57.84l-.42-1.58c.84-.22,1.87-.53,2.99-.88v-4.49h-2.68v-1.5h2.68v-4.4h1.47v4.4h2.02v1.5h-2.02v4.03l1.89-.59v-.95h14.1v1.34h-7.31ZM34.14,60.06h-10.5v-6.53h10.5v6.53ZM27.06,62.59h-2.68v1.58h2.68v-1.58ZM24.37,66.9h2.68v-1.56h-2.68v1.56ZM27.06,69.52v-1.45h-2.68v1.85l2.68-.4ZM32.58,54.69h-7.44v1.54h7.44v-1.54ZM32.58,57.33h-7.44v1.56h7.44v-1.56ZM35.09,64.11c-.4,2.31-1.1,4.16-2.09,5.63.84.88,1.8,1.61,2.9,2.07-.31.26-.73.79-.95,1.17-1.03-.53-1.98-1.25-2.79-2.16-.81.9-1.76,1.61-2.82,2.13-.15-.35-.53-.88-.84-1.17,1.03-.46,1.96-1.19,2.75-2.11-.79-1.14-1.43-2.46-1.89-3.92l1.19-.31c.35,1.12.88,2.18,1.52,3.12.59-.97,1.06-2.07,1.36-3.34h-4.53v-1.28h5.04l.26-.04.88.2Z"/><path class="cls-2" d="M41.42,68.68c-.66,1.34-1.67,2.73-2.64,3.63-.29-.24-.86-.64-1.21-.84.99-.84,1.91-1.98,2.44-3.15l1.41.35ZM50.12,62.13h-12.45v-1.28h5.5v-1.36h-4v-5.81h9.7v5.81h-4.2v1.36h5.46v1.28ZM44.66,67.78v3.61c0,.73-.15,1.1-.7,1.3-.57.24-1.36.24-2.6.24-.11-.4-.37-.92-.62-1.32.99.04,1.83.04,2.09.02.26,0,.33-.04.33-.26v-3.59h-3.81v-4.36h9.33v4.36h-4.03ZM40.61,56.07h6.71v-1.36h-6.71v1.36ZM40.61,58.45h6.71v-1.39h-6.71v1.39ZM40.76,66.61h6.4v-2.05h-6.4v2.05ZM57.88,66.04c-1.69,2.9-4.58,5.37-7.72,6.86-.26-.4-.73-.95-1.12-1.28l-.7.37c-.44-.81-1.41-2.11-2.29-3.04l1.23-.62c.86.9,1.89,2.16,2.35,2.97l-.09.04c2.75-1.32,5.37-3.48,6.78-5.92l1.56.59ZM56.72,53.85c-1.47,1.94-3.74,3.81-5.76,4.99-.29-.33-.75-.84-1.19-1.14,1.91-1.01,4.18-2.79,5.41-4.47l1.54.62ZM57.27,59.9c-1.61,2.02-4.03,4.03-6.2,5.26-.29-.35-.79-.86-1.19-1.14,2.07-1.08,4.53-2.97,5.88-4.75l1.52.64Z"/><path class="cls-2" d="M78.36,56.76v10.3h-1.67v-1.25h-6.31v7.13h-1.69v-7.13h-6.29v1.36h-1.61v-10.41h7.9v-3.92h1.69v3.92h7.99ZM68.68,64.19v-5.83h-6.29v5.83h6.29ZM76.69,64.19v-5.83h-6.31v5.83h6.31Z"/><path class="cls-2" d="M101.38,70.24v1.61h-19.63v-1.61h3.04v-12.56h1.67v12.56h5.1v-17.32h1.69v7.28h7.13v1.61h-7.13v8.43h8.12Z"/><path class="cls-2" d="M114.25,67.63h-10.74v-1.47h2.13v-8.93h-1.85v-1.47h1.85v-2.64h1.5v2.64h3.98v-2.64h1.52v2.64h1.61v1.47h-1.61v8.93h1.61v1.47ZM108.11,68.51c-.79,1.69-2.05,3.37-3.26,4.44-.31-.26-.92-.73-1.32-.95,1.21-.99,2.35-2.46,3.01-3.92l1.56.42ZM107.14,57.22v1.94h3.98v-1.94h-3.98ZM107.14,62.63h3.98v-2.16h-3.98v2.16ZM107.14,66.15h3.98v-2.2h-3.98v2.2ZM110.94,68.09c.88.99,1.89,2.35,2.31,3.26l-1.32.77c-.4-.88-1.39-2.31-2.27-3.34l1.28-.68ZM122.94,70.84c0,.97-.24,1.45-.84,1.72-.64.26-1.65.31-3.28.31-.07-.46-.31-1.17-.51-1.58,1.17.02,2.27.02,2.57,0,.33,0,.46-.11.46-.46v-5.28h-4.64c-.22,2.62-.77,5.41-2.09,7.52-.26-.31-.92-.81-1.3-.95,1.83-2.9,2-7.09,2-10.23v-7.94h7.61v16.9ZM121.35,64.06v-3.65h-4.49v1.47c0,.68-.02,1.43-.04,2.18h4.53ZM116.86,55.44v3.5h4.49v-3.5h-4.49Z"/><path class="cls-2" d="M128.26,61.29v11.66h-1.63v-19.16h7.94v7.5h-6.31ZM128.26,55.06v1.83h4.75v-1.83h-4.75ZM133.01,60.04v-1.94h-4.75v1.94h4.75ZM132.94,70.9v1.1h-1.47v-9.07h8.16v7.96h-6.69ZM132.94,64.22v2.02h5.17v-2.02h-5.17ZM138.12,69.61v-2.13h-5.17v2.13h5.17ZM144.67,70.77c0,1.03-.24,1.58-.97,1.87-.7.26-1.87.29-3.7.29-.07-.46-.33-1.23-.57-1.67,1.34.07,2.68.04,3.08.02.37,0,.51-.13.51-.53v-9.44h-6.49v-7.52h8.14v16.99ZM138.09,55.06v1.83h4.93v-1.83h-4.93ZM143.02,60.06v-1.96h-4.93v1.96h4.93Z"/><path class="cls-2" d="M158.31,71.94l-1.03-1.63c.7-.07,1.39-.18,1.89-.29,2.82-.64,5.59-2.73,5.59-6.54,0-3.32-2.13-6.07-5.88-6.38-.29,2.05-.7,4.29-1.32,6.34-1.34,4.53-3.08,6.84-5.13,6.84s-3.92-2.24-3.92-5.87c0-4.77,4.25-8.96,9.62-8.96s8.43,3.63,8.43,8.1-3.04,7.7-8.25,8.38ZM152.5,68.26c1.03,0,2.2-1.47,3.32-5.19.55-1.83.99-3.92,1.23-5.94-4.22.53-6.82,4.14-6.82,7.13,0,2.77,1.28,4,2.27,4Z"/><path class="cls-2" d="M177.47,55.19c-.02.53-.07,1.39-.09,2.38,1.61-.2,3.28-.51,4.53-.88l.04,1.72c-1.3.31-3.01.59-4.62.77-.02,1.03-.04,2.09-.04,2.97v.77c1.67-.53,3.39-.81,4.84-.81,3.21,0,5.52,1.74,5.52,4.38s-1.67,4.36-4.69,5.08c-.99.22-1.96.26-2.73.31l-.62-1.78c.81.02,1.76.02,2.57-.15,1.94-.37,3.7-1.41,3.7-3.43,0-1.87-1.69-2.88-3.78-2.88-1.65,0-3.21.31-4.8.86.04,1.87.09,3.83.09,4.77,0,2.05-.75,2.71-1.94,2.71-1.72,0-4.58-1.69-4.58-3.65,0-1.83,2.29-3.74,4.82-4.82v-1.25c0-.88,0-1.91.02-2.88-.62.04-1.17.07-1.63.07-1.25,0-2.07-.02-2.82-.11l-.04-1.67c1.21.15,2,.18,2.82.18.51,0,1.08-.02,1.69-.07,0-1.14.02-2.11.02-2.51,0-.44-.04-1.19-.11-1.56h1.96c-.07.4-.13,1.01-.15,1.52ZM175.01,70.09c.51,0,.81-.35.81-1.08,0-.79-.04-2.29-.07-3.89-1.8.84-3.15,2.11-3.15,3.1s1.54,1.87,2.4,1.87ZM189.49,59.33l-.9,1.41c-1.08-1.03-3.52-2.55-4.93-3.3l.79-1.32c1.56.84,3.96,2.33,5.04,3.21Z"/><path class="cls-2" d="M197.8,60.94c0,.22,0,.48-.02.75h4.14v1.56h-4.22c-.04.48-.13.99-.22,1.47,1.03,1.03,3.7,4,4.38,4.77l-1.1,1.39c-.75-1.08-2.46-3.15-3.65-4.49-.7,2.33-2.05,4.71-4.55,6.49-.22-.35-.79-.97-1.14-1.21,3.34-2.38,4.38-5.54,4.66-8.43h-4.42v-1.56h4.53v-4.38h-1.67c-.53,1.32-1.1,2.51-1.78,3.45-.29-.29-.97-.73-1.34-.95,1.3-1.69,2.2-4.31,2.73-6.98l1.58.31c-.18.92-.42,1.8-.68,2.64h6.27v1.52h-3.48v3.63ZM210.47,54.75v17.34h-1.63v-1.52h-4.64v1.74h-1.58v-17.56h7.85ZM208.85,69.03v-12.74h-4.64v12.74h4.64Z"/><path class="cls-2" d="M218.55,64.19c2.11-1.85,4.53-2.68,7.17-2.68,3.37,0,5.61,2.02,5.61,4.6,0,3.94-3.48,6.6-11.66,5.92l-.53-1.8c6.95.86,10.34-1.14,10.34-4.16,0-1.76-1.63-3.01-3.87-3.01-2.91,0-5.28,1.1-6.82,2.95-.33.37-.53.75-.66,1.1l-1.63-.4c.44-2,.99-6.62,1.12-8.93l1.85.24c-.31,1.5-.68,4.77-.92,6.18ZM228.47,55.7l-.42,1.69c-2.09-.29-6.86-1.25-8.54-1.72l.44-1.67c1.89.59,6.58,1.52,8.52,1.69Z"/><path class="cls-2" d="M250.76,55.88c-.02,1.01-.02,2.11-.04,3.08.88-.07,1.72-.11,2.44-.15.57-.04,1.19-.09,1.72-.11v1.72c-.35-.02-1.19,0-1.74,0-.66.02-1.5.07-2.46.13-.04,1.61-.09,3.56-.31,4.6-.2.97-.68,1.25-1.69,1.25-.79,0-2.31-.2-2.9-.31l.04-1.52c.75.18,1.69.29,2.2.29s.77-.09.84-.59c.11-.73.2-2.22.24-3.61-2.27.18-4.84.44-7.04.66-.02,2.27-.02,4.55,0,5.41.07,2.38.11,3.21,3.92,3.21,2.38,0,5.1-.26,6.53-.53l-.07,1.87c-1.47.15-4.16.35-6.38.35-5.08,0-5.57-1.17-5.68-4.66-.02-.95-.02-3.28-.02-5.48-.97.11-1.78.2-2.35.26-.68.09-1.63.22-2.22.31l-.2-1.8c.68,0,1.5-.04,2.29-.13.55-.04,1.43-.13,2.49-.22.02-1.47.02-2.68.02-3.06,0-.68-.04-1.19-.13-1.87h1.91c-.04.51-.09,1.1-.09,1.78,0,.73,0,1.8-.02,2.97,2.16-.2,4.71-.44,7.06-.64v-3.15c0-.48-.04-1.28-.11-1.65h1.87c-.07.37-.09,1.12-.11,1.58Z"/></g></svg>