<?xml version="1.0" encoding="UTF-8"?>
<svg id="_レイヤー_2" data-name="レイヤー 2" xmlns="http://www.w3.org/2000/svg" viewBox="0 0 30 30">
  <defs>
    <style>
      .cls-1 {
        fill: #fff;
      }
    </style>
  </defs>
  <g id="_レイヤー_1-2" data-name="レイヤー 1">
    <g>
      <path class="cls-1" d="M15,30C6.73,30,0,23.27,0,15S6.73,0,15,0s15,6.73,15,15-6.73,15-15,15ZM15,.55C7.03.55.55,7.03.55,15s6.48,14.45,14.45,14.45,14.45-6.48,14.45-14.45S22.97.55,15,.55Z"/>
      <path class="cls-1" d="M21.71,28.41c-.15,0-.28-.12-.28-.28V1.98c0-.15.12-.28.28-.28s.28.12.28.28v26.16c0,.15-.12.28-.28.28Z"/>
      <path class="cls-1" d="M6.95,27.33c-.15,0-.28-.12-.28-.28V2.84c0-.15.12-.28.28-.28s.28.12.28.28v24.22c0,.15-.12.28-.28.28Z"/>
      <path class="cls-1" d="M14.05,29.73c-.15,0-.28-.12-.28-.28V.3c0-.15.12-.28.28-.28s.28.12.28.28v29.15c0,.15-.12.28-.28.28Z"/>
      <path class="cls-1" d="M28.81,19.26h-14.66c-.15,0-.28-.12-.28-.28s.12-.28.28-.28h14.66c.15,0,.28.12.28.28s-.12.28-.28.28Z"/>
      <path class="cls-1" d="M13.94,14.98H.28c-.15,0-.28-.12-.28-.28s.12-.28.28-.28h13.67c.15,0,.28.12.28.28s-.12.28-.28.28Z"/>
      <path class="cls-1" d="M28.81,10.1h-14.74c-.15,0-.28-.12-.28-.28s.12-.28.28-.28h14.74c.15,0,.28.12.28.28s-.12.28-.28.28Z"/>
    </g>
  </g>
</svg>